# xmcd
#
# Track frame offsets:
#	150
#	13446
#	25572
#	39033
#	54376
#	73827
#	83060
#	99796
#	118254
#	146219
#	170965
#	185499
#	200370
#	233159
#
# Disc length: 3303 seconds
#
# Revision: 1
# Processed by: cddbd v1.5.2PL0 Copyright (c) Steve Scherf et al.
# Submitted via: EZCDAudioConverter 1.3.4.1
#
DISCID=be0ce50e
DTITLE=V/A - Havana Holiday 3/3
DYEAR=2007
DGENRE=
TTITLE0=Rubén González - Indestructible
TTITLE1=Omara Portuondo - Toda Una Vida
TTITLE2=Benny Moré - Elige Tú, Que Canto Yo
TTITLE3=Compay Segundo - El Calderito
TTITLE4=Eliades Ochoa - Rita La Caimana
TTITLE5=Rubén González - Zancudo
TTITLE6=Ibrahím Ferrer - Ahora No Puedo
TTITLE7=Eliades Ochoa - El Cuarto De Tula
TTITLE8=Irakere - Bailando Así
TTITLE9=Juan Formell Y Los Van Van - La Habana No Aguanta Mas
TTITLE10=Eliades Ochoa - Entre Flores
TTITLE11=Compay Segundo - No Quiero Celos Contigo
TTITLE12=Juan Formell Y Los Van Van - Anda, Ven Y Muevete
TTITLE13=Irakere - Taka Takata
EXTD=
EXTT0=
EXTT1=
EXTT2=
EXTT3=
EXTT4=
EXTT5=
EXTT6=
EXTT7=
EXTT8=
EXTT9=
EXTT10=
EXTT11=
EXTT12=
EXTT13=
PLAYORDER=
